<svg width="233" height="224" viewBox="0 0 233 224" fill="none" xmlns="http://www.w3.org/2000/svg">
<g clip-path="url(#clip0_95_411)">
<path d="M107.85 224C167.414 224 215.7 204.922 215.7 181.388C215.7 157.854 167.414 138.776 107.85 138.776C48.2861 138.776 0 157.854 0 181.388C0 204.922 48.2861 224 107.85 224Z" fill="#D6D6E3"/>
<path d="M182.101 42.4838C182.813 27.233 171.004 14.2937 155.724 13.5833C140.445 12.8729 127.481 24.6602 126.769 39.9111C126.192 52.2797 133.851 63.1264 144.917 67.164L148.619 102.693L176.942 81.282C176.942 81.282 171.401 73.5196 168.637 64.9291C176.333 60.331 181.653 52.0975 182.101 42.4838Z" fill="#ED9DA0"/>
<path d="M145.35 72.2487C145.35 72.2487 127.97 71.6455 122.456 78.7938C116.943 85.9421 113.373 98.0725 113.664 107.067C113.955 116.062 135.257 163.414 135.257 163.414L213.455 177.341L218.083 177.565C225.561 177.926 231.988 172.32 232.631 164.874C233.862 150.622 232.005 136.276 227.202 122.798C221.331 106.327 212.879 85.622 205.816 80.0829C193.607 70.5078 170.932 71.0881 170.932 71.0881L170.991 71.1341L156.978 90.8187L145.35 72.2487Z" fill="#7EC8C4"/>
<path d="M53.3652 174.499L43.2479 179.545L91.6518 188.335C91.6518 188.335 98.1415 197.89 109.359 192.766L168.833 209.403L210.112 180.968L91.6518 158.481L53.3652 174.499Z" fill="#090814"/>
<path d="M142.524 163.968C142.524 163.968 135.704 155.144 122.036 158.481L91.6518 153.169L53.3653 170.337C53.3653 170.337 50.5176 177.776 48.7734 178.066C48.7734 178.066 94.1228 183.279 97.7565 187.782L108.076 190.253C108.076 190.253 116.216 189.092 122.611 193.445C129.007 197.797 167.089 205.921 167.089 205.921L207.481 179.545L200.697 173.936L142.524 163.968Z" fill="#D6D6E3"/>
<path d="M162.183 195.788L162.066 195.755C141.792 189.915 111.053 181.392 109.478 181.836L109.221 181.317C109.546 181.141 110.307 180.732 136.42 187.927C148.619 191.288 160.793 194.785 162.111 195.164L200.555 173.683L200.839 174.19L162.183 195.788Z" fill="#090814"/>
<path d="M102.715 185.427L102.582 185.157C102.531 185.052 97.2437 174.578 82.0908 174.789C66.6909 174.99 53.4062 170.656 53.2738 170.612L53.4568 170.061C53.5884 170.105 66.7871 174.402 82.0831 174.209C90.1863 174.101 95.4698 177.007 98.4712 179.463C101.177 181.678 102.546 183.887 102.964 184.637L142.388 163.712L142.661 164.224L102.715 185.427Z" fill="#090814"/>
<path d="M96.7391 133.664L82.0587 139.331C82.0587 139.331 92.3143 162.019 103.28 164.574L114.026 149.119L96.7391 133.664Z" fill="#7EC8C4"/>
<path d="M93.2074 139.79L125.873 115.772L129.943 134.052L102.242 151.946C101.735 155.765 99.4858 159.641 95.7696 162.392C89.2672 167.206 80.7602 166.755 76.7684 161.384C72.7767 156.012 74.8119 147.756 81.3143 142.941C85.0306 140.19 89.3988 139.166 93.2074 139.79Z" fill="#ED9DA0"/>
<path d="M150.838 26.7084C150.838 26.7084 145.067 32.9704 138.542 33.4714C132.017 33.9723 130.425 33.4714 130.425 33.4714C130.425 33.4714 124.238 36.7276 128.755 40.2344L130.009 42.4887C130.009 42.4887 129.115 43.9916 128.182 42.4887L128.253 44.743C128.253 44.743 123.485 42.7392 123.485 39.2324C123.485 39.2324 118.521 41.7372 116.611 35.7257C116.611 35.7257 120.527 38.2305 120.625 35.7257C120.625 35.7257 113.949 31.718 115.454 25.7065C115.454 25.7065 115.705 27.9608 116.96 28.2113C116.96 28.2113 112.945 19.6949 118.466 15.9377L119.219 18.9435C119.219 18.9435 119.219 13.4329 124.739 11.4291C124.739 11.4291 123.987 13.9339 124.99 14.9358C124.99 14.9358 126.496 8.1728 129.257 8.42329C129.257 8.42329 127.751 11.4291 129.759 11.4291C131.766 11.4291 134.527 3.91463 134.527 3.91463C134.527 3.91463 138.542 1.6603 140.048 1.91078C140.048 1.91078 135.029 4.91655 138.04 4.91655C141.051 4.91655 142.557 2.66222 142.557 2.66222C142.557 2.66222 147.576 -1.59595 153.348 0.658375C159.12 2.9127 158.367 2.9127 158.367 2.9127C158.367 2.9127 163.135 -1.09499 166.899 1.15934L165.645 2.66222C165.645 2.66222 177.941 5.41751 177.941 11.1786C177.941 11.1786 183.813 15.9549 182.132 20.7054C182.132 20.7054 184.968 22.4502 184.466 24.7045C184.466 24.7045 188.23 41.7372 183.964 47.4983L180.451 51.506C180.451 51.506 175.181 36.7276 172.922 42.7392C170.664 48.7507 166.397 41.2363 166.397 41.2363C166.397 41.2363 160.626 36.9781 160.124 30.9666C159.622 24.955 150.838 26.7084 150.838 26.7084Z" fill="#090814"/>
<path d="M126.164 87.627L120.641 82.9845L109.013 124.187L82.0587 139.331C82.0587 139.331 115.199 137.59 103.28 164.574L136.048 158.715L132.931 134.108L126.164 87.627Z" fill="#7EC8C4"/>
<path d="M80.4598 118.875L78.5272 120.18L79.4935 124.911L95.8347 170.061L100.567 168.088L83.0761 122.357L80.4598 118.875Z" fill="#090814"/>
<path d="M98.4453 167.685L96.7391 168.491L97.2047 170.061C97.2047 170.061 96.3974 173.705 99.766 175.306L101.1 177.196L101.39 174.875C101.39 174.875 101.605 169.49 98.4453 167.685Z" fill="#090814"/>
<path d="M166.828 156.352L221.895 158.658L222.968 175.254L166.225 171.476C163.43 174.133 159.243 175.743 154.619 175.559C146.53 175.238 140.188 169.56 140.455 162.878C140.721 156.195 147.495 151.039 155.585 151.361C160.208 151.544 164.254 153.482 166.828 156.352Z" fill="#ED9DA0"/>
<path d="M159.304 120.995C160.428 120.995 161.339 120.085 161.339 118.964C161.339 117.842 160.428 116.933 159.304 116.933C158.18 116.933 157.269 117.842 157.269 118.964C157.269 120.085 158.18 120.995 159.304 120.995Z" fill="#090814"/>
<path d="M159.304 144.788C160.428 144.788 161.339 143.878 161.339 142.756C161.339 141.635 160.428 140.725 159.304 140.725C158.18 140.725 157.269 141.635 157.269 142.756C157.269 143.878 158.18 144.788 159.304 144.788Z" fill="#090814"/>
<path d="M82.0587 39.7097C82.0587 39.7097 61.2736 30.6675 47.9014 40.823C47.9014 40.823 40.0482 77.8607 33.6549 81.1035C33.6549 81.1035 85.7636 76.0582 96.0479 83.1038C96.0479 83.1038 84.5297 63.84 82.0587 39.7097Z" fill="#D6D6E3"/>
<path d="M59.8425 75.7602L59.5294 83.766C59.5294 83.766 63.0178 86.9577 61.5643 92.4706L60.1108 93.0509L60.724 93.9259L58.0759 95.9525L59.9972 97.709C59.9972 97.709 62.7907 101.106 59.9972 102.011L60.9829 104.077C60.9829 104.077 62.5 109.459 59.9972 113.731C57.4945 118.004 53.779 123.2 59.9972 132.498L58.948 134.833L60.4015 136.864C60.4015 136.864 59.5294 141.797 57.2038 142.958H71.7388C71.7388 142.958 67.669 138.315 68.5411 137.155C69.4132 135.994 70.2853 135.123 70.2853 135.123L68.2504 132.802C68.2504 132.802 77.1781 125.681 69.0805 114.879C69.0805 114.879 66.7969 105.818 67.9597 104.077L68.8318 102.336C68.8318 102.336 66.5062 100.595 68.5411 97.4033L70.8667 96.5328L68.2504 94.5017L69.1225 93.3411L67.0876 91.8903C67.0876 91.8903 65.9248 85.2168 69.4132 83.766L68.5411 78.253L59.8425 75.7602Z" fill="#D6D6E3"/>
<path d="M217.671 177.478C219.26 175.391 177.282 173.708 176.165 171.772C170.132 161.32 173.258 153.202 173.258 153.202L222.386 141.596L200.519 118.875L218.445 132.467C228.369 139.991 233.737 152.067 232.666 164.461C232.004 172.127 225.369 177.887 217.671 177.478Z" fill="#7EC8C4"/>
<path d="M75.504 159.166L53.3309 169.8L53.5827 170.323L75.7558 159.689L75.504 159.166Z" fill="#090814"/>
</g>
<defs>
<clipPath id="clip0_95_411">
<rect width="233" height="224" fill="white"/>
</clipPath>
</defs>
</svg>
