<?xml version="1.0" encoding="UTF-8"?>
<svg id="Capa_1" data-name="Capa 1" xmlns="http://www.w3.org/2000/svg" viewBox="0 0 500 473.6">
  <defs>
    <style>
      .cls-1 {
        fill: #2b2a29;
      }
    </style>
  </defs>
  <path class="cls-1" d="m495.87,222.09c-.52.03-1.01.18-1.46.44-3.36,1.92-21.08,11.83-34.95,15.77-15.4,4.37-32.02,2.45-42.86,1.4-10.85-1.05-39.72-21.17-44.09-23.79-4.37-2.62-.18-5.42-.18-5.42,23.62-14.35,43.39-50.39,51.44-60.71,8.05-10.32,9.1-43.91,8.22-47.41-.87-3.5-7.87-2.1-8.4,2.1s-1.4,11.37-11.37,35.34c-9.97,23.97-38.32,46.71-55.29,59.66-16.02,12.22-36.1,12.13-38.29,12.08-.14,0-.29,0-.43.02-6.4.75-10.02-.31-11.75-1.14-.75-.36-1.34-.98-1.64-1.75-5.69-14.68-35.96-28.1-39.21-28.1s-5.6-6.65-5.6-6.65c-3.15-6.47,1.75-38.14,1.75-38.14,3.04-29.02,35.03-43.56,37.31-44.56.09-.04.17-.08.26-.12,18.18-9.5,21.67-29.71,22.05-32.36.03-.19.04-.37.03-.57l-.95-34.19c0-5.12-3.94-5.25-3.94-5.25-5.38-.79-5.42,5.6-5.42,5.6,0,0,.35,17.15,0,27.29-.31,8.87-5.42,16.93-6.71,18.83-.19.28-.4.51-.66.72-3.9,3.15-37.3,29.92-40.92,26.29-3.85-3.85-27.64-52.14-30.79-58.09-3.15-5.95-3.85-36.04-4.2-37.79-.35-1.75-5.25-2.45-7.35,0-2.1,2.45,0,37.44.7,41.99.7,4.55,18.9,42.34,25.19,51.09,6.3,8.75,4.9,20.3,3.15,26.94-1.75,6.65-9.1,36.39-9.66,43.74s-7.83,12.95-9.93,12.95-16.45,5.25-24.14,10.15c-6.7,4.26-19.22,2.17-22.36,1.55-.47-.09-.91-.28-1.31-.56l-26.89-19.01s-27.82-20.3-27.47-27.82c.35-7.52-8.75-47.59-12.07-56.34-3.19-8.4-25.76-36.35-32.81-41.32-.29-.2-.53-.42-.78-.49-3.24-.99-4.59.62-4.56,2.66.01.92.45,1.77,1.13,2.4,3.58,3.25,15.23,20.14,17.15,23.02.19.28.46.61.66.89.4.56.89,1.2,1.41,2.03,5.93,9.53,10.63,39.87,10.63,39.87,0,0,4.2,27.99,2.97,31.84-.94,2.94-30.45-.74-44.38-1.62-1.78-.11-3.17-.06-4.32-.2-1.7-.2-4.21-.47-4.21-.47-2.11-.18-7.54-1.71-13.62-3.31-.31-.08-1.32-.45-1.69-.57-.58-.18-1.22-.46-1.92-.82-8.46-4.44-24.53-21.57-28.95-26-.47-.47-1.7-.37-1.93-.33-2.66.43-2.78,1.21-3.69,2.01-.5.43-.67,1.14-.61,1.92.24,3.39,20.82,24.14,26.77,29.74,4.21,3.96,8.32,4.03,13.03,5.6l8.4,2.3c1.84.72,6.85,1.5,8.73,1.48,27.46-.27,54.21,6.78,57.51,7.68.23.06.47.08.71.1,8.17.8,45.47,42.51,45.47,42.51,3.65,3.09,5.83,7.87,6.91,11.37.7,2.27-1.72,8.59-2.57,11.39-4.38,14.41.51,38.96.89,40.81.02.08.03.15.06.22,2.93,10.08,1.37,16.51,1.37,16.51-1.52,11.81-43.87,43.96-46.89,46.24-.12.09-.23.16-.35.24-9.36,5.48-43.21,4.96-43.21,4.96-4.93,0-19.9-10.35-21.69-11.6-.12-.09-.25-.16-.38-.23-22.93-12.25-58.23-.94-58.23-.94-3.82,2.02-2.74,4.26-1.47,5.6.76.81,1.88,1.14,2.98.97,14.39-2.22,34.01.54,37.62,1.15.39.07,1.44.35,1.84.39,3.66.38,28.33,15.43,28.67,19.18.35,3.85-32.37,31.84-37.27,34.99-.9.58-1.56,1.14-2.04,1.68-1.63,1.82-.82,4.74,1.51,5.47,14.42,4.52,48.73-33.31,55.39-40.85.64-.73,2.18-1.73,3.01-2.23,3.43-2.08,9.42-2.35,12.66-2.69.7-.07,4.22-.16,4.92-.2,4.59-.24,14.22.65,15.35,2.6,1.1,1.88-1.1,10.3-1.27,12.43-.02.23-.12.44-.15.67-1.92,16.07-5.24,38.6-7.5,50.76-2.11,11.35-13.84,23.91-15.54,25.68-.14.15-.27.31-.39.48-1.36,2.04-1.79,3.7-1.76,5.01.05,2.25,2.35,3.82,4.47,3.05,20.13-7.31,27.44-39.33,28.62-44.37,1.22-5.25,5.77-44.79,5.77-44.79,1.5-17.09,25.88-35.89,36.45-43.29,2.06-1.44,3.42-2.75,4.16-3.23.33-.22.86-.81,1.14-1.09,1.08-1.12,1.83-1.64,2.9-2.47,11.65-9.08,30.74,3.05,33.69,5.03.26.17.75.43.98.64,4.77,4.18,33.99,3.92,36.24,3.63.31-.02,6.14-.94,6.43-1.05,5.23-2.14,11.31-3.18,16.08-3.69,4.75-.51,8.52.41,8.52.41,2.48.75,3.2.88,6.11,3.66,10.61,10.12,29.35,34.03,33.86,39.83.62.8.84,1.83.62,2.81-2.11,9.53-7.5,44.66-7.5,44.66-3.67,28.34,27.99,61.76,36.39,65.61,3.6,1.65,5.43,1.08,6.35-.11,1.17-1.51.67-3.78-.97-4.75-7.15-4.23-24.28-33.11-24.28-33.11-14.11-24.8-.7-49.83,4.75-58.26,1.05-1.62,3.23-1.99,4.82-.88,11.82,8.29,27.4,10.62,28.97,10.83.09.01.16.02.25.02,10.35.56,49.94,5.42,57.44,6.99,6.75,1.41,21.79,17.32,24.83,20.58.4.43.91.75,1.46.93,5.23,1.73,5.44-2.31,5.22-4.42-.08-.72-.39-1.39-.89-1.92l-15.75-16.92c-6.77-8.64-24.29-13.46-35.2-15.71-4.53-.94-7.5-1.11-8.91-1.11-1.1,0-.83-.02-.67-.02-2.41.13-4.74-.27-6.94-.27-27.64-.08-39.26-10.36-39.26-10.36-7-1.57-45.31-54.41-45.31-54.41-5.71-6.8-5.61-15.62-5.28-19.2.09-.93.68-1.65,1.29-2.36,9.18-10.7,11.93-37.47,12.05-44.31,0-.3.03-.6.11-.89,5.16-19.04,39.78-15.82,39.78-15.82,5.8-.33,42.86,21.52,42.86,21.52,21.34,14.52,61.59.52,67.01-1.4,4.78-1.7,25.6-15.08,30.47-18.23.69-.45,1.21-1.13,1.42-1.93,1.2-4.75-2.18-5.08-3.87-4.97Zm-206.77,41.07c-.16.27-.33.53-.5.79-11.3,17.32-42.44,18.77-42.44,18.77-24.03,1.47-40.85-14.44-45.55-19.49-.22-.24-.42-.45-.58-.64-.51-.56-.8-1.29-.82-2.04,0-.48,0-.91.04-1.32.44-4.73,3.96-4.63,6.47-3.94.87.24,1.61.55,2.07.77.3.14.58.32.84.53.52.43,1.05.84,1.57,1.25,31.79,24.56,62.53,5.03,69.36.06.53-.38.91-.68,1.14-.86.18-.14.38-.27.59-.36.43-.19.84-.35,1.23-.48,4.63-1.56,6.35,1.03,6.99,3.16.05.17.09.33.13.49.27,1.13.04,2.32-.55,3.31Z"/>
</svg>